<?xml version="1.0" encoding="UTF-8" standalone="no"?>
<!DOCTYPE svg PUBLIC "-//W3C//DTD SVG 1.1//EN" "http://www.w3.org/Graphics/SVG/1.1/DTD/svg11.dtd">
<svg width="100%" height="100%" viewBox="0 0 730 251" version="1.1" xmlns="http://www.w3.org/2000/svg" xmlns:xlink="http://www.w3.org/1999/xlink" xml:space="preserve" xmlns:serif="http://www.serif.com/" style="fill-rule:evenodd;clip-rule:evenodd;stroke-linejoin:round;stroke-miterlimit:2;">
  <g>
    <path d="M39.647,150.238c-0.759,-4.457 -0.759,-8.914 -1.518,-13.371c-0.759,-8.914 -6.831,-11.143 -15.94,-5.572c-25.808,15.6 -28.085,52.371 -9.868,77.442c25.808,34.542 68.316,42.899 112.341,41.785c53.893,-1.672 105.509,-22.843 134.354,-61.285c12.904,-17.271 13.663,-31.756 10.627,-36.771c-3.037,-4.457 -10.627,-6.128 -14.423,0c-18.976,30.086 -50.857,63.514 -101.714,77.442c27.327,-13.371 32.64,-36.771 34.158,-58.499c2.277,-38.442 -12.145,-81.899 -6.831,-133.155c3.036,-3.9 5.313,-7.242 8.349,-10.585c9.868,-12.814 13.663,-18.943 6.073,-24.514c-6.832,-5.014 -24.29,-2.786 -40.99,8.357c-15.94,10.585 -23.53,21.171 -27.326,42.899c-22.012,28.414 -56.17,64.628 -87.292,95.827Zm85.774,-60.17c3.036,44.57 14.422,132.04 -20.494,139.84c-25.049,5.571 -47.062,-17.271 -58.448,-49.585c28.844,-30.085 56.929,-60.727 78.942,-90.255Z" style="fill:#b85a8a;fill-rule:nonzero;"/>
    <path d="M268.884,150.238c-0.76,-4.457 -0.76,-8.914 -1.519,-13.371c-0.759,-8.914 -6.831,-11.143 -15.94,-5.572c-25.808,15.6 -28.085,52.371 -9.868,77.442c25.808,34.542 68.316,42.899 112.341,41.785c53.893,-1.672 105.51,-22.843 134.354,-61.285c12.904,-17.271 13.663,-31.756 10.627,-36.771c-3.037,-4.457 -10.627,-6.128 -14.422,0c-18.977,30.086 -50.857,63.514 -101.714,77.442c27.326,-13.371 32.639,-36.771 34.157,-58.499c2.277,-38.442 -12.145,-81.899 -6.831,-133.155c3.036,-3.9 5.313,-7.242 8.349,-10.585c9.868,-12.814 13.663,-18.943 6.073,-24.514c-6.832,-5.014 -24.29,-2.786 -40.989,8.357c-15.941,10.585 -23.531,21.171 -27.327,42.899c-22.012,28.414 -56.17,64.628 -87.291,95.827Zm85.773,-60.17c3.037,44.57 14.422,132.04 -20.494,139.84c-25.049,5.571 -47.062,-17.271 -58.448,-49.585c28.844,-30.085 56.93,-60.727 78.942,-90.255Z" style="fill:#d194b4;fill-rule:nonzero;"/>
    <path d="M498.12,150.238c-0.759,-4.457 -0.759,-8.914 -1.519,-13.371c-0.759,-8.914 -6.831,-11.143 -15.94,-5.572c-25.808,15.6 -28.085,52.371 -9.868,77.442c25.808,34.542 68.316,42.899 112.341,41.785c53.894,-1.672 105.51,-22.843 134.354,-61.285c12.904,-17.271 13.663,-31.756 10.627,-36.771c-3.036,-4.457 -10.627,-6.128 -14.422,0c-18.977,30.086 -50.857,63.514 -101.714,77.442c27.326,-13.371 32.639,-36.771 34.157,-58.499c2.277,-38.442 -12.145,-81.899 -6.831,-133.155c3.036,-3.9 5.313,-7.242 8.349,-10.585c9.868,-12.814 13.663,-18.943 6.073,-24.514c-6.832,-5.014 -24.29,-2.786 -40.989,8.357c-15.941,10.585 -23.531,21.171 -27.327,42.899c-22.012,28.414 -56.17,64.628 -87.291,95.827Zm85.773,-60.17c3.037,44.57 14.423,132.04 -20.494,139.84c-25.049,5.571 -47.062,-17.271 -58.448,-49.585c28.844,-30.085 56.93,-60.727 78.942,-90.255Z" style="fill:#e8cad9;fill-rule:nonzero;"/>
  </g>
</svg>
