<?xml version="1.0" encoding="UTF-8" standalone="no"?>
<!DOCTYPE svg PUBLIC "-//W3C//DTD SVG 1.1//EN" "http://www.w3.org/Graphics/SVG/1.1/DTD/svg11.dtd">
<svg width="100%" height="100%" viewBox="0 0 928 192" version="1.1" xmlns="http://www.w3.org/2000/svg" xmlns:xlink="http://www.w3.org/1999/xlink" xml:space="preserve" xmlns:serif="http://www.serif.com/" style="fill-rule:evenodd;clip-rule:evenodd;stroke-linejoin:round;stroke-miterlimit:2;">
  <path d="M34.464,114.912c-0.656,-3.404 -0.656,-6.809 -1.312,-10.213c-0.655,-6.808 -5.902,-8.51 -13.772,-4.255c-22.297,11.915 -24.265,39.999 -8.525,59.147c22.297,26.382 59.023,32.764 97.06,31.913c46.563,-1.276 91.158,-17.446 116.079,-46.806c11.149,-13.191 11.805,-24.255 9.181,-28.084c-2.623,-3.404 -9.181,-4.681 -12.46,-0c-16.395,22.978 -43.939,48.508 -87.879,59.146c23.609,-10.212 28.2,-28.084 29.512,-44.679c1.967,-29.36 -10.493,-62.551 -5.903,-101.698c2.624,-2.979 4.591,-5.532 7.214,-8.085c8.526,-9.787 11.805,-14.467 5.247,-18.722c-5.903,-3.83 -20.986,-2.128 -35.414,6.382c-13.772,8.085 -20.33,16.17 -23.609,32.765c-19.019,21.701 -48.531,49.36 -75.419,73.189Zm74.107,-45.956c2.623,34.041 12.46,100.847 -17.707,106.804c-21.642,4.255 -40.66,-13.191 -50.498,-37.871c24.921,-22.977 49.186,-46.381 68.205,-68.933Z" style="fill:#b85a8a;fill-rule:nonzero;"/>
  <path d="M232.52,114.912c-0.656,-3.404 -0.656,-6.809 -1.312,-10.213c-0.656,-6.808 -5.902,-8.51 -13.772,-4.255c-22.298,11.915 -24.265,39.999 -8.526,59.147c22.298,26.382 59.024,32.764 97.061,31.913c46.563,-1.276 91.158,-17.446 116.079,-46.806c11.149,-13.191 11.804,-24.255 9.181,-28.084c-2.623,-3.404 -9.181,-4.681 -12.46,-0c-16.396,22.978 -43.94,48.508 -87.879,59.146c23.609,-10.212 28.2,-28.084 29.511,-44.679c1.968,-29.36 -10.493,-62.551 -5.902,-101.698c2.623,-2.979 4.591,-5.532 7.214,-8.085c8.525,-9.787 11.805,-14.467 5.246,-18.722c-5.902,-3.83 -20.986,-2.128 -35.414,6.382c-13.772,8.085 -20.33,16.17 -23.609,32.765c-19.018,21.701 -48.53,49.36 -75.418,73.189Zm74.107,-45.956c2.623,34.041 12.46,100.847 -17.707,106.804c-21.642,4.255 -40.661,-13.191 -50.498,-37.871c24.921,-22.977 49.186,-46.381 68.205,-68.933Z" style="fill:#d194b4;fill-rule:nonzero;"/>
  <path d="M509.038,145.423l0,15.714l-13.526,0l-0,-132.447l13.526,-0l0,55.466l0.398,-0c3.979,-6.1 9.15,-10.709 15.516,-13.825c6.365,-3.116 12.93,-4.675 19.693,-4.675c7.293,0 13.891,1.26 19.792,3.78c5.901,2.519 10.941,5.967 15.118,10.344c4.177,4.376 7.426,9.548 9.747,15.515c2.321,5.968 3.481,12.399 3.481,19.295c0,6.896 -1.16,13.328 -3.481,19.295c-2.321,5.968 -5.57,11.14 -9.747,15.516c-4.177,4.376 -9.217,7.824 -15.118,10.344c-5.901,2.519 -12.499,3.779 -19.792,3.779c-6.763,0 -13.328,-1.525 -19.693,-4.575c-6.366,-3.05 -11.537,-7.559 -15.516,-13.526l-0.398,-0Zm69.423,-30.833c-0,-5.172 -0.796,-10.045 -2.387,-14.62c-1.591,-4.575 -3.879,-8.554 -6.863,-11.935c-2.984,-3.382 -6.664,-6.067 -11.04,-8.057c-4.376,-1.989 -9.349,-2.983 -14.919,-2.983c-5.172,-0 -9.946,0.961 -14.322,2.884c-4.376,1.923 -8.155,4.575 -11.338,7.957c-3.183,3.381 -5.669,7.36 -7.46,11.935c-1.79,4.575 -2.685,9.515 -2.685,14.819c0,5.305 0.895,10.245 2.685,14.82c1.791,4.575 4.277,8.52 7.46,11.835c3.183,3.316 6.962,5.935 11.338,7.858c4.376,1.923 9.15,2.884 14.322,2.884c5.57,-0 10.543,-0.961 14.919,-2.884c4.376,-1.923 8.056,-4.575 11.04,-7.957c2.984,-3.382 5.272,-7.36 6.863,-11.935c1.591,-4.575 2.387,-9.449 2.387,-14.621Z" style="fill:#e8cad9;fill-rule:nonzero;"/>
  <path d="M689.458,161.137c-0.266,-2.519 -0.465,-5.304 -0.597,-8.354c-0.133,-3.05 -0.199,-5.57 -0.199,-7.559l-0.398,-0c-2.652,5.437 -6.962,9.846 -12.93,13.228c-5.967,3.381 -12.266,5.072 -18.897,5.072c-11.802,0 -20.654,-3.514 -26.556,-10.542c-5.901,-7.029 -8.851,-16.312 -8.851,-27.849l-0,-57.09l13.526,0l-0,51.52c-0,4.907 0.398,9.349 1.193,13.328c0.796,3.978 2.155,7.393 4.078,10.244c1.923,2.851 4.509,5.073 7.758,6.664c3.249,1.591 7.327,2.387 12.234,2.387c3.58,-0 7.061,-0.729 10.443,-2.188c3.381,-1.459 6.398,-3.68 9.051,-6.664c2.652,-2.984 4.774,-6.763 6.365,-11.338c1.591,-4.575 2.387,-9.979 2.387,-16.212l0,-47.741l13.527,0l-0,72.606c-0,2.519 0.066,5.768 0.198,9.747c0.133,3.978 0.332,7.559 0.597,10.741l-12.929,0Z" style="fill:#e8cad9;fill-rule:nonzero;"/>
  <path d="M751.122,161.137l-13.526,0l-0,-93.094l13.526,0l0,93.094Zm2.785,-122.899c0,2.785 -0.994,5.072 -2.984,6.863c-1.989,1.79 -4.177,2.685 -6.564,2.685c-2.387,0 -4.575,-0.895 -6.564,-2.685c-1.989,-1.791 -2.984,-4.078 -2.984,-6.863c-0,-2.785 0.995,-5.072 2.984,-6.863c1.989,-1.79 4.177,-2.685 6.564,-2.685c2.387,-0 4.575,0.895 6.564,2.685c1.99,1.791 2.984,4.078 2.984,6.863Z" style="fill:#e8cad9;fill-rule:nonzero;"/>
  <rect x="787.524" y="28.69" width="13.526" height="132.447" style="fill:#e8cad9;fill-rule:nonzero;"/>
  <path d="M913.838,145.423c-3.979,5.967 -9.151,10.476 -15.516,13.526c-6.365,3.05 -12.93,4.575 -19.693,4.575c-7.294,0 -13.891,-1.26 -19.792,-3.779c-5.902,-2.52 -10.941,-5.968 -15.118,-10.344c-4.177,-4.376 -7.426,-9.548 -9.747,-15.516c-2.321,-5.967 -3.481,-12.399 -3.481,-19.295c-0,-6.896 1.16,-13.327 3.481,-19.295c2.321,-5.967 5.57,-11.139 9.747,-15.515c4.177,-4.377 9.216,-7.825 15.118,-10.344c5.901,-2.52 12.498,-3.78 19.792,-3.78c6.763,0 13.328,1.559 19.693,4.675c6.365,3.116 11.537,7.725 15.516,13.825l0.397,-0l0,-55.466l13.527,-0l-0,132.447l-13.527,0l0,-15.714l-0.397,-0Zm-69.025,-30.833c-0,5.172 0.796,10.046 2.387,14.621c1.591,4.575 3.879,8.553 6.863,11.935c2.983,3.382 6.663,6.034 11.04,7.957c4.376,1.923 9.349,2.884 14.918,2.884c5.172,-0 9.946,-0.961 14.323,-2.884c4.376,-1.923 8.155,-4.542 11.338,-7.858c3.183,-3.315 5.669,-7.26 7.459,-11.835c1.791,-4.575 2.686,-9.515 2.686,-14.82c-0,-5.304 -0.895,-10.244 -2.686,-14.819c-1.79,-4.575 -4.276,-8.554 -7.459,-11.935c-3.183,-3.382 -6.962,-6.034 -11.338,-7.957c-4.377,-1.923 -9.151,-2.884 -14.323,-2.884c-5.569,-0 -10.542,0.994 -14.918,2.983c-4.377,1.99 -8.057,4.675 -11.04,8.057c-2.984,3.381 -5.272,7.36 -6.863,11.935c-1.591,4.575 -2.387,9.448 -2.387,14.62Z" style="fill:#e8cad9;fill-rule:nonzero;"/>
</svg>
